<svg 
          width="24.9999942779541" 
          height="22.58448600769043" fill="none" 
          xmlns="http://www.w3.org/2000/svg">
          <path d="M 21.920312881469727 15.690536499023438 C 21.56196364760399 15.49985457956791 21.119336500763893 15.640362411737442 20.931690216064453 16.00422477722168 C 19.311086535453796 19.145617723464966 16.1366286277771 21.09710693359375 12.647228240966797 21.09710693359375 C 7.5001630783081055 21.09710693359375 3.311788738705218 16.850343704223633 3.301730155944824 11.626422882080078 L 3.8894731998443604 12.223210334777832 C 4.032490625977516 12.36842805147171 4.219941720366478 12.441060066223145 4.407343864440918 12.441060066223145 C 4.594746008515358 12.441060066223145 4.782245695590973 12.368477627635002 4.9252142906188965 12.223210334777832 C 5.211249142885208 11.932774901390076 5.211249142885208 11.46191942691803 4.9252142906188965 11.171483993530273 L 3.0877652168273926 9.305815696716309 C 2.8017792105674744 9.015380263328552 2.3380101025104523 9.015380263328552 2.0519752502441406 9.305815696716309 L 0.21452613174915314 11.171483993530273 C -0.07150872051715851 11.461869835853577 -0.07150872051715851 11.932774901390076 0.21452613174915314 12.223210334777832 C 0.5005121380090714 12.513645768165588 0.9642811715602875 12.513596177101135 1.2503160238265991 12.223210334777832 L 1.8368388414382935 11.62771224975586 C 1.841965788975358 14.55219578742981 2.965792179107666 17.30092191696167 5.00294828414917 19.36941909790039 C 7.04479193687439 21.442676067352295 9.759584903717041 22.58448600769043 12.647228240966797 22.58448600769043 C 16.683356761932373 22.58448600769043 20.354933619499207 20.327538013458252 22.229248046875 16.69441795349121 C 22.416991993784904 16.330555588006973 22.278662115335464 15.881119266152382 21.920312881469727 15.690536499023438 ZM 24.78547477722168 10.36127758026123 C 24.499488681554794 10.070842117071152 24.035720229148865 10.070842117071152 23.749685287475586 10.36127758026123 L 23.16311264038086 10.95682430267334 C 23.15798569144681 8.032290935516357 22.034207105636597 5.2836151123046875 19.99700164794922 3.2150681018829346 C 17.955206155776978 1.1418108940124512 15.240413188934326 0 12.352768898010254 0 C 8.316638946533203 0 4.645060062408447 2.256948232650757 2.770745038986206 5.890069007873535 C 2.583001047372818 6.253881812095642 2.721330851316452 6.703367665410042 3.0796802043914795 6.893950462341309 C 3.437883049249649 7.084533259272575 3.8805586397647858 6.944074988365173 4.068302631378174 6.580262184143066 C 5.688906788825989 3.438868761062622 8.863367319107056 1.487378716468811 12.352768898010254 1.487378716468811 C 17.49973773956299 1.487378716468811 21.688114555552602 5.734142303466797 21.698270797729492 10.957964897155762 L 21.11057472229004 10.361228942871094 C 20.824588626623154 10.070793479681015 20.36081826686859 10.070793479681015 20.074783325195312 10.361228942871094 C 19.788748383522034 10.651664406061172 19.788748383522034 11.122518867254257 20.074783325195312 11.412954330444336 L 21.912233352661133 13.27867317199707 C 22.055250823497772 13.42389090359211 22.24270109832287 13.4965238571167 22.430103302001953 13.4965238571167 C 22.617505505681038 13.4965238571167 22.80500651896 13.423940494656563 22.947975158691406 13.27867317199707 L 24.785425186157227 11.412954330444336 C 25.0715089738369 11.122518867254257 25.07150971889496 10.651663482189178 24.78547477722168 10.36127758026123 ZM 13.209875106811523 18 L 10.185874938964844 12.719999313354492 L 10.185874938964844 12.015999794006348 L 10.537875175476074 12.015999794006348 C 11.391208589076996 12.015999794006348 12.041874885559082 11.893333122134209 12.489874839782715 11.64799976348877 C 12.94854149222374 11.40266640484333 13.215208373963833 10.959999740123749 13.289875030517578 10.319999694824219 L 10.185874938964844 10.319999694824219 L 10.185874938964844 9.295999526977539 L 13.27387523651123 9.295999526977539 C 13.167208671569824 8.698666274547577 12.884541511535645 8.266666412353516 12.425874710083008 8 C 11.977874606847763 7.733332961797714 11.348541796207428 7.59999942779541 10.537875175476074 7.59999942779541 L 10.185874938964844 7.59999942779541 L 10.185874938964844 6.5759992599487305 L 16.80987548828125 6.5759992599487305 L 16.80987548828125 7.59999942779541 L 13.78587532043457 7.59999942779541 C 14.29787540435791 8.015999794006348 14.601875938475132 8.58133316040039 14.6978759765625 9.295999526977539 L 16.80987548828125 9.295999526977539 L 16.80987548828125 10.319999694824219 L 14.729875564575195 10.319999694824219 C 14.65520890802145 11.098666489124298 14.35654228925705 11.706665992736816 13.83387565612793 12.143999099731445 C 13.32187557220459 12.57066598534584 12.639208614826202 12.842665992677212 11.78587532043457 12.959999084472656 L 14.841875076293945 18 L 13.209875106811523 18 Z" fill="rgb(0,0,0)"/>
        </svg>